# xmcd
# 
# Track frame offsets:
#     150
#     33263
#     82925
#     107155
#     147120
#     208510
#     255273
# 
# Disc length: 3658
# 
# Revision: 0
# Processed by: cddbd v1.5.2PL0 Copyright (c) Steve Scherf et al.
# Submitted via: BonkEnc v1.0.15
# 
DISCID=4f0e4807
DTITLE=ベート-ベン シュ-ウベルト - 運命 未完成
DYEAR=0
DGENRE=clasic
TTITLE0=運命       第一楽章
TTITLE1=第二楽章
TTITLE2=第三楽章
TTITLE3=第四楽章
TTITLE4=未完成      第一楽章
TTITLE5=第二楽章
TTITLE6=フィガロの結婚   序曲
EXTD=
EXTT0=
EXTT1=
EXTT2=
EXTT3=
EXTT4=
EXTT5=
EXTT6=
PLAYORDER=
